<?xml version="1.0" encoding="UTF-8" standalone="no"?><svg xmlns="http://www.w3.org/2000/svg" xmlns:xlink="http://www.w3.org/1999/xlink" contentScriptType="application/ecmascript" contentStyleType="text/css" height="568px" preserveAspectRatio="none" style="width:656px;height:568px;" version="1.1" viewBox="0 0 656 568" width="656px" zoomAndPan="magnify"><defs><filter height="300%" id="fnofl24tf22fk" width="300%" x="-1" y="-1"><feGaussianBlur result="blurOut" stdDeviation="2.0"/><feColorMatrix in="blurOut" result="blurOut2" type="matrix" values="0 0 0 0 0 0 0 0 0 0 0 0 0 0 0 0 0 0 .4 0"/><feOffset dx="4.0" dy="4.0" in="blurOut2" result="blurOut3"/><feBlend in="SourceGraphic" in2="blurOut3" mode="normal"/></filter></defs><g><rect fill="#FFFFFF" filter="url(#fnofl24tf22fk)" height="351.8672" style="stroke:#000000;stroke-width:2.0;" width="632.5" x="10" y="136.9219"/><rect fill="#FFFFFF" filter="url(#fnofl24tf22fk)" height="111.4063" style="stroke:#000000;stroke-width:2.0;" width="612.5" x="20" y="235.9766"/><rect fill="#FFFFFF" height="32.3516" style="stroke:none;stroke-width:1.0;" width="612.5" x="20" y="315.0313"/><line style="stroke:#A80036;stroke-width:1.0;stroke-dasharray:5.0,5.0;" x1="77" x2="77" y1="59.2188" y2="505.7891"/><line style="stroke:#A80036;stroke-width:1.0;stroke-dasharray:5.0,5.0;" x1="381" x2="381" y1="59.2188" y2="505.7891"/><line style="stroke:#A80036;stroke-width:1.0;stroke-dasharray:5.0,5.0;" x1="585.5" x2="585.5" y1="59.2188" y2="505.7891"/><rect fill="#FEFECE" filter="url(#fnofl24tf22fk)" height="49.2188" style="stroke:#A80036;stroke-width:1.5;" width="91" x="30" y="5"/><text fill="#000000" font-family="sans-serif" font-size="14" font-style="italic" lengthAdjust="spacing" textLength="48" x="51.5" y="26.5332">«Vault»</text><text fill="#000000" font-family="sans-serif" font-size="14" lengthAdjust="spacing" textLength="77" x="37" y="44.1426">Respondent</text><rect fill="#FEFECE" filter="url(#fnofl24tf22fk)" height="49.2188" style="stroke:#A80036;stroke-width:1.5;" width="91" x="30" y="504.7891"/><text fill="#000000" font-family="sans-serif" font-size="14" font-style="italic" lengthAdjust="spacing" textLength="48" x="51.5" y="526.3223">«Vault»</text><text fill="#000000" font-family="sans-serif" font-size="14" lengthAdjust="spacing" textLength="77" x="37" y="543.9316">Respondent</text><rect fill="#FEFECE" filter="url(#fnofl24tf22fk)" height="49.2188" style="stroke:#A80036;stroke-width:1.5;" width="85" x="337" y="5"/><text fill="#000000" font-family="sans-serif" font-size="14" font-style="italic" lengthAdjust="spacing" textLength="48" x="355.5" y="26.5332">«Vault»</text><text fill="#000000" font-family="sans-serif" font-size="14" lengthAdjust="spacing" textLength="71" x="344" y="44.1426">CityCouncil</text><rect fill="#FEFECE" filter="url(#fnofl24tf22fk)" height="49.2188" style="stroke:#A80036;stroke-width:1.5;" width="85" x="337" y="504.7891"/><text fill="#000000" font-family="sans-serif" font-size="14" font-style="italic" lengthAdjust="spacing" textLength="48" x="355.5" y="526.3223">«Vault»</text><text fill="#000000" font-family="sans-serif" font-size="14" lengthAdjust="spacing" textLength="71" x="344" y="543.9316">CityCouncil</text><rect fill="#FEFECE" filter="url(#fnofl24tf22fk)" height="49.2188" style="stroke:#A80036;stroke-width:1.5;" width="70" x="548.5" y="5"/><text fill="#000000" font-family="sans-serif" font-size="14" font-style="italic" lengthAdjust="spacing" textLength="56" x="555.5" y="26.5332">«Wallet»</text><text fill="#000000" font-family="sans-serif" font-size="14" lengthAdjust="spacing" textLength="44" x="561.5" y="44.1426">Uphold</text><rect fill="#FEFECE" filter="url(#fnofl24tf22fk)" height="49.2188" style="stroke:#A80036;stroke-width:1.5;" width="70" x="548.5" y="504.7891"/><text fill="#000000" font-family="sans-serif" font-size="14" font-style="italic" lengthAdjust="spacing" textLength="56" x="555.5" y="526.3223">«Wallet»</text><text fill="#000000" font-family="sans-serif" font-size="14" lengthAdjust="spacing" textLength="44" x="561.5" y="543.9316">Uphold</text><polygon fill="#A80036" points="369.5,87.5703,379.5,91.5703,369.5,95.5703,373.5,91.5703" style="stroke:#A80036;stroke-width:1.0;"/><line style="stroke:#A80036;stroke-width:1.0;" x1="77.5" x2="375.5" y1="91.5703" y2="91.5703"/><text fill="#000000" font-family="sans-serif" font-size="13" lengthAdjust="spacing" textLength="231" x="84.5" y="86.7139">getQuestionnaire(String questionnaireId)</text><polygon fill="#A80036" points="88.5,117.9219,78.5,121.9219,88.5,125.9219,84.5,121.9219" style="stroke:#A80036;stroke-width:1.0;"/><line style="stroke:#A80036;stroke-width:1.0;stroke-dasharray:2.0,2.0;" x1="82.5" x2="380.5" y1="121.9219" y2="121.9219"/><text fill="#000000" font-family="sans-serif" font-size="13" lengthAdjust="spacing" textLength="85" x="94.5" y="117.0654">[questionnaire]</text><path d="M10,136.9219 L136,136.9219 L136,144.9219 L126,154.9219 L10,154.9219 L10,136.9219 " fill="#EEEEEE" style="stroke:#000000;stroke-width:1.0;"/><rect fill="none" height="351.8672" style="stroke:#000000;stroke-width:2.0;" width="632.5" x="10" y="136.9219"/><text fill="#000000" font-family="sans-serif" font-size="13" font-weight="bold" lengthAdjust="spacing" textLength="81" x="25" y="151.417">Monetisation</text><polygon fill="#A80036" points="369.5,173.625,379.5,177.625,369.5,181.625,373.5,177.625" style="stroke:#A80036;stroke-width:1.0;"/><line style="stroke:#A80036;stroke-width:1.0;" x1="77.5" x2="375.5" y1="177.625" y2="177.625"/><text fill="#000000" font-family="sans-serif" font-size="13" lengthAdjust="spacing" textLength="280" x="84.5" y="172.7686">[answeredQuestionnaire] + [paymentInformation]</text><line style="stroke:#A80036;stroke-width:1.0;" x1="381.5" x2="423.5" y1="207.9766" y2="207.9766"/><line style="stroke:#A80036;stroke-width:1.0;" x1="423.5" x2="423.5" y1="207.9766" y2="220.9766"/><line style="stroke:#A80036;stroke-width:1.0;" x1="382.5" x2="423.5" y1="220.9766" y2="220.9766"/><polygon fill="#A80036" points="392.5,216.9766,382.5,220.9766,392.5,224.9766,388.5,220.9766" style="stroke:#A80036;stroke-width:1.0;"/><text fill="#000000" font-family="sans-serif" font-size="13" lengthAdjust="spacing" textLength="100" x="388.5" y="203.1201">check the validity</text><path d="M20,235.9766 L81,235.9766 L81,243.9766 L71,253.9766 L20,253.9766 L20,235.9766 " fill="#EEEEEE" style="stroke:#000000;stroke-width:1.0;"/><rect fill="none" height="111.4063" style="stroke:#000000;stroke-width:2.0;" width="612.5" x="20" y="235.9766"/><text fill="#000000" font-family="sans-serif" font-size="13" font-weight="bold" lengthAdjust="spacing" textLength="16" x="35" y="250.4717">alt</text><text fill="#000000" font-family="sans-serif" font-size="11" font-weight="bold" lengthAdjust="spacing" textLength="329" x="96" y="249.3955">[if answeredQuestionnaire and paymentInformation are OK]</text><polygon fill="#A80036" points="573.5,272.6797,583.5,276.6797,573.5,280.6797,577.5,276.6797" style="stroke:#A80036;stroke-width:1.0;"/><line style="stroke:#A80036;stroke-width:1.0;" x1="381.5" x2="579.5" y1="276.6797" y2="276.6797"/><text fill="#000000" font-family="sans-serif" font-size="13" font-weight="bold" lengthAdjust="spacing" textLength="180" x="388.5" y="271.8232">send payment to respondent</text><polygon fill="#A80036" points="392.5,303.0313,382.5,307.0313,392.5,311.0313,388.5,307.0313" style="stroke:#A80036;stroke-width:1.0;"/><line style="stroke:#A80036;stroke-width:1.0;stroke-dasharray:2.0,2.0;" x1="386.5" x2="584.5" y1="307.0313" y2="307.0313"/><text fill="#000000" font-family="sans-serif" font-size="13" lengthAdjust="spacing" textLength="112" x="398.5" y="302.1748">[transaction record]</text><line style="stroke:#000000;stroke-width:1.0;stroke-dasharray:2.0,2.0;" x1="20" x2="632.5" y1="316.0313" y2="316.0313"/><polygon fill="#A80036" points="88.5,335.3828,78.5,339.3828,88.5,343.3828,84.5,339.3828" style="stroke:#A80036;stroke-width:1.0;"/><line style="stroke:#A80036;stroke-width:1.0;stroke-dasharray:2.0,2.0;" x1="82.5" x2="380.5" y1="339.3828" y2="339.3828"/><text fill="#000000" font-family="sans-serif" font-size="13" lengthAdjust="spacing" textLength="248" x="94.5" y="334.5264">invalid questionnaire or paymentInformation</text><polygon fill="#A80036" points="88.5,372.7344,78.5,376.7344,88.5,380.7344,84.5,376.7344" style="stroke:#A80036;stroke-width:1.0;"/><line style="stroke:#A80036;stroke-width:1.0;stroke-dasharray:2.0,2.0;" x1="82.5" x2="380.5" y1="376.7344" y2="376.7344"/><text fill="#000000" font-family="sans-serif" font-size="13" lengthAdjust="spacing" textLength="82" x="94.5" y="371.8779">[transactionId]</text><polygon fill="#A80036" points="573.5,403.0859,583.5,407.0859,573.5,411.0859,577.5,407.0859" style="stroke:#A80036;stroke-width:1.0;"/><line style="stroke:#A80036;stroke-width:1.0;" x1="77.5" x2="579.5" y1="407.0859" y2="407.0859"/><text fill="#000000" font-family="sans-serif" font-size="13" lengthAdjust="spacing" textLength="167" x="84.5" y="402.2295">getTransaction(transactionId)</text><polygon fill="#A80036" points="88.5,433.4375,78.5,437.4375,88.5,441.4375,84.5,437.4375" style="stroke:#A80036;stroke-width:1.0;"/><line style="stroke:#A80036;stroke-width:1.0;stroke-dasharray:2.0,2.0;" x1="82.5" x2="584.5" y1="437.4375" y2="437.4375"/><text fill="#000000" font-family="sans-serif" font-size="13" lengthAdjust="spacing" textLength="112" x="94.5" y="432.5811">[transaction record]</text><line style="stroke:#A80036;stroke-width:1.0;" x1="77.5" x2="119.5" y1="467.7891" y2="467.7891"/><line style="stroke:#A80036;stroke-width:1.0;" x1="119.5" x2="119.5" y1="467.7891" y2="480.7891"/><line style="stroke:#A80036;stroke-width:1.0;" x1="78.5" x2="119.5" y1="480.7891" y2="480.7891"/><polygon fill="#A80036" points="88.5,476.7891,78.5,480.7891,88.5,484.7891,84.5,480.7891" style="stroke:#A80036;stroke-width:1.0;"/><text fill="#000000" font-family="sans-serif" font-size="13" lengthAdjust="spacing" textLength="165" x="84.5" y="462.9326">check if the tranction correct</text><!--MD5=[ba6cbc980ae29041ab83d658aed2986b]
@startuml service-provider-to-consumer

participant Respondent as r <<Vault>> order 1
participant CityCouncil as cc <<Vault>> order 2
participant Uphold as u <<Wallet>> order 3

r -> cc : getQuestionnaire(String questionnaireId)
r <- - cc : [questionnaire]

group Monetisation
  r -> cc : [answeredQuestionnaire] + [paymentInformation]
  cc -> cc : check the validity
  alt if answeredQuestionnaire and paymentInformation are OK
    cc -> u : **send payment to respondent**
    cc <- - u : [transaction record]
  else 
    r <- - cc : invalid questionnaire or paymentInformation
  end

r <- - cc : [transactionId]
r -> u : getTransaction(transactionId)
r <- - u: [transaction record]
r -> r : check if the tranction correct
end


@enduml

PlantUML version 1.2021.00(Sun Jan 10 10:25:05 GMT 2021)
(GPL source distribution)
Java Runtime: Java(TM) SE Runtime Environment
JVM: Java HotSpot(TM) 64-Bit Server VM
Default Encoding: Cp1252
Language: en
Country: GB
--></g></svg>