<?xml version="1.0" encoding="UTF-8" standalone="no"?><svg xmlns="http://www.w3.org/2000/svg" xmlns:xlink="http://www.w3.org/1999/xlink" contentScriptType="application/ecmascript" contentStyleType="text/css" height="448px" preserveAspectRatio="none" style="width:444px;height:448px;" version="1.1" viewBox="0 0 444 448" width="444px" zoomAndPan="magnify"><defs><filter height="300%" id="f1gt6fmf7b5j06" width="300%" x="-1" y="-1"><feGaussianBlur result="blurOut" stdDeviation="2.0"/><feColorMatrix in="blurOut" result="blurOut2" type="matrix" values="0 0 0 0 0 0 0 0 0 0 0 0 0 0 0 0 0 0 .4 0"/><feOffset dx="4.0" dy="4.0" in="blurOut2" result="blurOut3"/><feBlend in="SourceGraphic" in2="blurOut3" mode="normal"/></filter></defs><g><rect fill="#FFFFFF" filter="url(#f1gt6fmf7b5j06)" height="81.0547" style="stroke:#000000;stroke-width:2.0;" width="266.5" x="10" y="288.6797"/><rect fill="#FFFFFF" height="32.3516" style="stroke:none;stroke-width:1.0;" width="266.5" x="10" y="337.3828"/><line style="stroke:#A80036;stroke-width:1.0;stroke-dasharray:5.0,5.0;" x1="61" x2="61" y1="59.2188" y2="386.7344"/><line style="stroke:#A80036;stroke-width:1.0;stroke-dasharray:5.0,5.0;" x1="206.5" x2="206.5" y1="59.2188" y2="386.7344"/><line style="stroke:#A80036;stroke-width:1.0;stroke-dasharray:5.0,5.0;" x1="397.5" x2="397.5" y1="59.2188" y2="386.7344"/><rect fill="#FEFECE" filter="url(#f1gt6fmf7b5j06)" height="49.2188" style="stroke:#A80036;stroke-width:1.5;" width="79" x="20" y="5"/><text fill="#000000" font-family="sans-serif" font-size="14" font-style="italic" lengthAdjust="spacing" textLength="48" x="35.5" y="26.5332">«Vault»</text><text fill="#000000" font-family="sans-serif" font-size="14" lengthAdjust="spacing" textLength="65" x="27" y="44.1426">Consumer</text><rect fill="#FEFECE" filter="url(#f1gt6fmf7b5j06)" height="49.2188" style="stroke:#A80036;stroke-width:1.5;" width="79" x="20" y="385.7344"/><text fill="#000000" font-family="sans-serif" font-size="14" font-style="italic" lengthAdjust="spacing" textLength="48" x="35.5" y="407.2676">«Vault»</text><text fill="#000000" font-family="sans-serif" font-size="14" lengthAdjust="spacing" textLength="65" x="27" y="424.877">Consumer</text><rect fill="#FEFECE" filter="url(#f1gt6fmf7b5j06)" height="49.2188" style="stroke:#A80036;stroke-width:1.5;" width="116" x="146.5" y="5"/><text fill="#000000" font-family="sans-serif" font-size="14" font-style="italic" lengthAdjust="spacing" textLength="48" x="180.5" y="26.5332">«Vault»</text><text fill="#000000" font-family="sans-serif" font-size="14" lengthAdjust="spacing" textLength="102" x="153.5" y="44.1426">Content Creator</text><rect fill="#FEFECE" filter="url(#f1gt6fmf7b5j06)" height="49.2188" style="stroke:#A80036;stroke-width:1.5;" width="116" x="146.5" y="385.7344"/><text fill="#000000" font-family="sans-serif" font-size="14" font-style="italic" lengthAdjust="spacing" textLength="48" x="180.5" y="407.2676">«Vault»</text><text fill="#000000" font-family="sans-serif" font-size="14" lengthAdjust="spacing" textLength="102" x="153.5" y="424.877">Content Creator</text><rect fill="#FEFECE" filter="url(#f1gt6fmf7b5j06)" height="49.2188" style="stroke:#A80036;stroke-width:1.5;" width="70" x="360.5" y="5"/><text fill="#000000" font-family="sans-serif" font-size="14" font-style="italic" lengthAdjust="spacing" textLength="56" x="367.5" y="26.5332">«Wallet»</text><text fill="#000000" font-family="sans-serif" font-size="14" lengthAdjust="spacing" textLength="44" x="373.5" y="44.1426">Uphold</text><rect fill="#FEFECE" filter="url(#f1gt6fmf7b5j06)" height="49.2188" style="stroke:#A80036;stroke-width:1.5;" width="70" x="360.5" y="385.7344"/><text fill="#000000" font-family="sans-serif" font-size="14" font-style="italic" lengthAdjust="spacing" textLength="56" x="367.5" y="407.2676">«Wallet»</text><text fill="#000000" font-family="sans-serif" font-size="14" lengthAdjust="spacing" textLength="44" x="373.5" y="424.877">Uphold</text><polygon fill="#A80036" points="194.5,87.5703,204.5,91.5703,194.5,95.5703,198.5,91.5703" style="stroke:#A80036;stroke-width:1.0;"/><line style="stroke:#A80036;stroke-width:1.0;" x1="61.5" x2="200.5" y1="91.5703" y2="91.5703"/><text fill="#000000" font-family="sans-serif" font-size="13" lengthAdjust="spacing" textLength="56" x="68.5" y="86.7139">subscribe</text><polygon fill="#A80036" points="72.5,117.9219,62.5,121.9219,72.5,125.9219,68.5,121.9219" style="stroke:#A80036;stroke-width:1.0;"/><line style="stroke:#A80036;stroke-width:1.0;stroke-dasharray:2.0,2.0;" x1="66.5" x2="205.5" y1="121.9219" y2="121.9219"/><text fill="#000000" font-family="sans-serif" font-size="13" lengthAdjust="spacing" textLength="121" x="78.5" y="117.0654">[paymentInformation]</text><polygon fill="#A80036" points="385.5,148.2734,395.5,152.2734,385.5,156.2734,389.5,152.2734" style="stroke:#A80036;stroke-width:1.0;"/><line style="stroke:#A80036;stroke-width:1.0;" x1="61.5" x2="391.5" y1="152.2734" y2="152.2734"/><text fill="#000000" font-family="sans-serif" font-size="13" font-weight="bold" lengthAdjust="spacing" textLength="119" x="68.5" y="147.417">pay through wallet</text><polygon fill="#A80036" points="72.5,178.625,62.5,182.625,72.5,186.625,68.5,182.625" style="stroke:#A80036;stroke-width:1.0;"/><line style="stroke:#A80036;stroke-width:1.0;stroke-dasharray:2.0,2.0;" x1="66.5" x2="396.5" y1="182.625" y2="182.625"/><text fill="#000000" font-family="sans-serif" font-size="13" lengthAdjust="spacing" textLength="112" x="78.5" y="177.7686">[transaction record]</text><polygon fill="#A80036" points="194.5,208.9766,204.5,212.9766,194.5,216.9766,198.5,212.9766" style="stroke:#A80036;stroke-width:1.0;"/><line style="stroke:#A80036;stroke-width:1.0;" x1="61.5" x2="200.5" y1="212.9766" y2="212.9766"/><text fill="#000000" font-family="sans-serif" font-size="13" lengthAdjust="spacing" textLength="82" x="68.5" y="208.1201">[transactionId]</text><polygon fill="#A80036" points="385.5,239.3281,395.5,243.3281,385.5,247.3281,389.5,243.3281" style="stroke:#A80036;stroke-width:1.0;"/><line style="stroke:#A80036;stroke-width:1.0;" x1="206.5" x2="391.5" y1="243.3281" y2="243.3281"/><text fill="#000000" font-family="sans-serif" font-size="13" lengthAdjust="spacing" textLength="167" x="213.5" y="238.4717">getTransaction(transactionId)</text><polygon fill="#A80036" points="217.5,269.6797,207.5,273.6797,217.5,277.6797,213.5,273.6797" style="stroke:#A80036;stroke-width:1.0;"/><line style="stroke:#A80036;stroke-width:1.0;stroke-dasharray:2.0,2.0;" x1="211.5" x2="396.5" y1="273.6797" y2="273.6797"/><text fill="#000000" font-family="sans-serif" font-size="13" lengthAdjust="spacing" textLength="112" x="223.5" y="268.8232">[transaction record]</text><path d="M10,288.6797 L71,288.6797 L71,296.6797 L61,306.6797 L10,306.6797 L10,288.6797 " fill="#EEEEEE" style="stroke:#000000;stroke-width:1.0;"/><rect fill="none" height="81.0547" style="stroke:#000000;stroke-width:2.0;" width="266.5" x="10" y="288.6797"/><text fill="#000000" font-family="sans-serif" font-size="13" font-weight="bold" lengthAdjust="spacing" textLength="16" x="25" y="303.1748">alt</text><text fill="#000000" font-family="sans-serif" font-size="11" font-weight="bold" lengthAdjust="spacing" textLength="40" x="86" y="302.0986">[valid?]</text><polygon fill="#A80036" points="72.5,325.3828,62.5,329.3828,72.5,333.3828,68.5,329.3828" style="stroke:#A80036;stroke-width:1.0;"/><line style="stroke:#A80036;stroke-width:1.0;stroke-dasharray:2.0,2.0;" x1="66.5" x2="205.5" y1="329.3828" y2="329.3828"/><text fill="#000000" font-family="sans-serif" font-size="13" lengthAdjust="spacing" textLength="116" x="78.5" y="324.5264">payment successful</text><line style="stroke:#000000;stroke-width:1.0;stroke-dasharray:2.0,2.0;" x1="10" x2="276.5" y1="338.3828" y2="338.3828"/><polygon fill="#A80036" points="72.5,357.7344,62.5,361.7344,72.5,365.7344,68.5,361.7344" style="stroke:#A80036;stroke-width:1.0;"/><line style="stroke:#A80036;stroke-width:1.0;stroke-dasharray:2.0,2.0;" x1="66.5" x2="205.5" y1="361.7344" y2="361.7344"/><text fill="#000000" font-family="sans-serif" font-size="13" lengthAdjust="spacing" textLength="89" x="78.5" y="356.8779">invalid payment</text><!--MD5=[78df868a6ee289a08827292253ac9bd7]
@startuml consumer-to-service-provider

participant Consumer as c <<Vault>> order 1
participant "Content Creator" as cc <<Vault>> order 2
participant Uphold as u <<Wallet>> order 3


c -> cc : subscribe 
c <- - cc : [paymentInformation]
c -> u : **pay through wallet**
c <- - u : [transaction record]
c -> cc : [transactionId]
cc -> u : getTransaction(transactionId)
cc <- - u : [transaction record]
alt valid?
  c <- - cc : payment successful
else 
  c <- - cc : invalid payment
end


@enduml

PlantUML version 1.2021.00(Sun Jan 10 10:25:05 GMT 2021)
(GPL source distribution)
Java Runtime: Java(TM) SE Runtime Environment
JVM: Java HotSpot(TM) 64-Bit Server VM
Default Encoding: Cp1252
Language: en
Country: GB
--></g></svg>