<?xml version="1.0" encoding="UTF-8"?><svg xmlns="http://www.w3.org/2000/svg" xmlns:xlink="http://www.w3.org/1999/xlink" fill-opacity="1" color-rendering="auto" color-interpolation="auto" text-rendering="auto" stroke="black" stroke-linecap="square" width="549" stroke-miterlimit="10" shape-rendering="auto" stroke-opacity="1" fill="black" stroke-dasharray="none" font-weight="normal" stroke-width="1" height="307" font-family="'Dialog'" font-style="normal" stroke-linejoin="miter" font-size="12px" stroke-dashoffset="0" image-rendering="auto">
  <!--Generated by ySVG 2.5-->
  <defs id="genericDefs"/>
  <g>
    <defs id="defs1">
      <clipPath clipPathUnits="userSpaceOnUse" id="clipPath1">
        <path d="M0 0 L549 0 L549 307 L0 307 L0 0 Z"/>
      </clipPath>
      <clipPath clipPathUnits="userSpaceOnUse" id="clipPath2">
        <path d="M269 218 L818 218 L818 525 L269 525 L269 218 Z"/>
      </clipPath>
      <clipPath clipPathUnits="userSpaceOnUse" id="clipPath3">
        <path d="M305 251 L305 377 L405 377 L405 251 Z"/>
      </clipPath>
      <clipPath clipPathUnits="userSpaceOnUse" id="clipPath4">
        <path d="M497 251 L497 345 L597 345 L597 251 Z"/>
      </clipPath>
      <clipPath clipPathUnits="userSpaceOnUse" id="clipPath5">
        <path d="M305 446 L305 525 L405 525 L405 446 Z"/>
      </clipPath>
      <clipPath clipPathUnits="userSpaceOnUse" id="clipPath6">
        <path d="M718 251 L718 345 L818 345 L818 251 Z"/>
      </clipPath>
    </defs>
    <g fill="white" text-rendering="geometricPrecision" shape-rendering="geometricPrecision" transform="translate(-269,-218)" stroke="white">
      <rect x="269" width="549" height="307" y="218" clip-path="url(#clipPath2)" stroke="none"/>
    </g>
    <g fill="white" text-rendering="geometricPrecision" shape-rendering="geometricPrecision" transform="matrix(1,0,0,1,-269,-218)" stroke="white">
      <rect x="305" width="100" height="126" y="251" clip-path="url(#clipPath2)" stroke="none"/>
    </g>
    <g text-rendering="geometricPrecision" stroke-miterlimit="1.45" shape-rendering="geometricPrecision" transform="matrix(1,0,0,1,-269,-218)" stroke-linecap="butt">
      <rect fill="none" x="305" width="100" height="126" y="251" clip-path="url(#clipPath2)"/>
      <text x="329" font-size="13px" y="269.0698" clip-path="url(#clipPath3)" font-family="sans-serif" stroke="none" font-weight="bold" xml:space="preserve">Account</text>
      <line stroke-linecap="square" clip-path="url(#clipPath3)" fill="none" x1="306" x2="404" y1="276" y2="276" stroke-miterlimit="10"/>
      <text x="310" xml:space="preserve" y="293.9907" clip-path="url(#clipPath3)" font-family="sans-serif" stroke="none">id</text>
      <text x="310" xml:space="preserve" y="308.6919" clip-path="url(#clipPath3)" font-family="sans-serif" stroke="none">username</text>
      <text x="310" xml:space="preserve" y="323.3931" clip-path="url(#clipPath3)" font-family="sans-serif" stroke="none">password</text>
      <text x="310" xml:space="preserve" y="338.0942" clip-path="url(#clipPath3)" font-family="sans-serif" stroke="none">email</text>
      <text x="310" xml:space="preserve" y="352.7954" clip-path="url(#clipPath3)" font-family="sans-serif" stroke="none">fullname</text>
      <line stroke-linecap="square" clip-path="url(#clipPath3)" fill="none" x1="306" x2="404" y1="360" y2="360" stroke-miterlimit="10"/>
      <text x="310" xml:space="preserve" y="377.4966" clip-path="url(#clipPath3)" font-family="sans-serif" stroke="none"> </text>
    </g>
    <g fill="white" text-rendering="geometricPrecision" shape-rendering="geometricPrecision" transform="matrix(1,0,0,1,-269,-218)" stroke="white">
      <rect x="497" width="100" height="94" y="251" clip-path="url(#clipPath2)" stroke="none"/>
    </g>
    <g text-rendering="geometricPrecision" stroke-miterlimit="1.45" shape-rendering="geometricPrecision" transform="matrix(1,0,0,1,-269,-218)" stroke-linecap="butt">
      <rect fill="none" x="497" width="100" height="94" y="251" clip-path="url(#clipPath2)"/>
      <text x="532.9146" font-size="13px" y="269.0698" clip-path="url(#clipPath4)" font-family="sans-serif" stroke="none" font-weight="bold" xml:space="preserve">Post</text>
      <line stroke-linecap="square" clip-path="url(#clipPath4)" fill="none" x1="498" x2="596" y1="276" y2="276" stroke-miterlimit="10"/>
      <text x="502" xml:space="preserve" y="293.9907" clip-path="url(#clipPath4)" font-family="sans-serif" stroke="none">id</text>
      <text x="502" xml:space="preserve" y="308.6919" clip-path="url(#clipPath4)" font-family="sans-serif" stroke="none">datetime</text>
      <text x="502" xml:space="preserve" y="323.3931" clip-path="url(#clipPath4)" font-family="sans-serif" stroke="none">message</text>
      <line stroke-linecap="square" clip-path="url(#clipPath4)" fill="none" x1="498" x2="596" y1="331" y2="331" stroke-miterlimit="10"/>
      <text x="502" xml:space="preserve" y="348.0942" clip-path="url(#clipPath4)" font-family="sans-serif" stroke="none"> </text>
    </g>
    <g fill="white" text-rendering="geometricPrecision" shape-rendering="geometricPrecision" transform="matrix(1,0,0,1,-269,-218)" stroke="white">
      <rect x="305" width="100" height="79" y="446" clip-path="url(#clipPath2)" stroke="none"/>
    </g>
    <g text-rendering="geometricPrecision" stroke-miterlimit="1.45" shape-rendering="geometricPrecision" transform="matrix(1,0,0,1,-269,-218)" stroke-linecap="butt">
      <rect fill="none" x="305" width="100" height="79" y="446" clip-path="url(#clipPath2)"/>
      <text x="329.3491" font-size="13px" y="464.0698" clip-path="url(#clipPath5)" font-family="sans-serif" stroke="none" font-weight="bold" xml:space="preserve">Pictures</text>
      <line stroke-linecap="square" clip-path="url(#clipPath5)" fill="none" x1="306" x2="404" y1="471" y2="471" stroke-miterlimit="10"/>
      <text x="310" xml:space="preserve" y="488.9907" clip-path="url(#clipPath5)" font-family="sans-serif" stroke="none">id</text>
      <text x="310" xml:space="preserve" y="503.6919" clip-path="url(#clipPath5)" font-family="sans-serif" stroke="none">message</text>
      <line stroke-linecap="square" clip-path="url(#clipPath5)" fill="none" x1="306" x2="404" y1="511" y2="511" stroke-miterlimit="10"/>
      <text x="310" xml:space="preserve" y="528.3931" clip-path="url(#clipPath5)" font-family="sans-serif" stroke="none"> </text>
    </g>
    <g fill="white" text-rendering="geometricPrecision" shape-rendering="geometricPrecision" transform="matrix(1,0,0,1,-269,-218)" stroke="white">
      <rect x="718" width="100" height="94" y="251" clip-path="url(#clipPath2)" stroke="none"/>
    </g>
    <g text-rendering="geometricPrecision" stroke-miterlimit="1.45" shape-rendering="geometricPrecision" transform="matrix(1,0,0,1,-269,-218)" stroke-linecap="butt">
      <rect fill="none" x="718" width="100" height="94" y="251" clip-path="url(#clipPath2)"/>
      <text x="738.0264" font-size="13px" y="269.0698" clip-path="url(#clipPath6)" font-family="sans-serif" stroke="none" font-weight="bold" xml:space="preserve">Comment</text>
      <line stroke-linecap="square" clip-path="url(#clipPath6)" fill="none" x1="719" x2="817" y1="276" y2="276" stroke-miterlimit="10"/>
      <text x="723" xml:space="preserve" y="293.9907" clip-path="url(#clipPath6)" font-family="sans-serif" stroke="none"> </text>
      <text x="723" xml:space="preserve" y="308.6919" clip-path="url(#clipPath6)" font-family="sans-serif" stroke="none"> </text>
      <line stroke-linecap="square" clip-path="url(#clipPath6)" fill="none" x1="719" x2="817" y1="316" y2="316" stroke-miterlimit="10"/>
      <text x="723" xml:space="preserve" y="333.3931" clip-path="url(#clipPath6)" font-family="sans-serif" stroke="none">  </text>
      <path fill="none" d="M355 250.9678 L355 236 L290 236 L290 314 L305.0122 314" clip-path="url(#clipPath2)"/>
      <text x="317.9912" xml:space="preserve" y="232.4639" clip-path="url(#clipPath2)" font-family="sans-serif" stroke="none">friends</text>
      <text x="360.9941" xml:space="preserve" y="242.4639" clip-path="url(#clipPath2)" font-family="sans-serif" stroke="none">0..*</text>
      <text x="289.6631" xml:space="preserve" y="331.4639" clip-path="url(#clipPath2)" font-family="sans-serif" stroke="none">1</text>
      <path fill="none" d="M412.0156 314 L496.9796 314" clip-path="url(#clipPath2)"/>
      <path d="M405.0156 314 L412.0156 309 L419.0156 314 L412.0156 319 Z" clip-path="url(#clipPath2)" stroke="none"/>
      <text x="462.6592" xml:space="preserve" y="306.7139" clip-path="url(#clipPath2)" font-family="sans-serif" stroke="none">posts</text>
      <text x="412.8808" xml:space="preserve" y="307.7139" clip-path="url(#clipPath2)" font-family="sans-serif" stroke="none">owner</text>
      <text x="412.6631" xml:space="preserve" y="334.7139" clip-path="url(#clipPath2)" font-family="sans-serif" stroke="none">1</text>
      <text x="474.9961" xml:space="preserve" y="332.7139" clip-path="url(#clipPath2)" font-family="sans-serif" stroke="none">0..*</text>
      <path fill="none" d="M317 384.0145 L317 446.0098" clip-path="url(#clipPath2)"/>
      <path d="M317 377.0145 L322 384.0145 L317 391.0145 L312 384.0145 Z" clip-path="url(#clipPath2)" stroke="none"/>
      <text x="271.9912" xml:space="preserve" y="437.3633" clip-path="url(#clipPath2)" font-family="sans-serif" stroke="none">pictures</text>
      <text x="274.6582" xml:space="preserve" y="396.2139" clip-path="url(#clipPath2)" font-family="sans-serif" stroke="none">owner</text>
      <text x="326.6631" xml:space="preserve" y="396.2139" clip-path="url(#clipPath2)" font-family="sans-serif" stroke="none">1</text>
      <text x="320.9941" xml:space="preserve" y="436.2139" clip-path="url(#clipPath2)" font-family="sans-serif" stroke="none">0..*</text>
      <path fill="none" d="M392 377.0145 L392 446.0098" clip-path="url(#clipPath2)"/>
      <text x="395.9844" xml:space="preserve" y="438.2139" clip-path="url(#clipPath2)" font-family="sans-serif" stroke="none">profilePicture</text>
      <text x="367.9922" xml:space="preserve" y="437.3633" clip-path="url(#clipPath2)" font-family="sans-serif" stroke="none">0..1</text>
      <path fill="none" d="M547 345.0123 L547 485.5 L405.0156 485.5" clip-path="url(#clipPath2)"/>
      <text x="409.9912" xml:space="preserve" y="501.1392" clip-path="url(#clipPath2)" font-family="sans-serif" stroke="none">pictures</text>
      <text x="412.9941" xml:space="preserve" y="477.1392" clip-path="url(#clipPath2)" font-family="sans-serif" stroke="none">0..*</text>
      <path fill="none" d="M603.9894 325 L718.0245 325" clip-path="url(#clipPath2)"/>
      <path d="M596.9894 325 L603.9894 320 L610.9894 325 L603.9894 330 Z" clip-path="url(#clipPath2)" stroke="none"/>
      <text x="655.6523" xml:space="preserve" y="317.7139" clip-path="url(#clipPath2)" font-family="sans-serif" stroke="none">comments</text>
      <text x="603.6631" xml:space="preserve" y="346.7139" clip-path="url(#clipPath2)" font-family="sans-serif" stroke="none">1</text>
      <text x="693.9883" xml:space="preserve" y="342.7139" clip-path="url(#clipPath2)" font-family="sans-serif" stroke="none">0..*</text>
      <text x="612.1592" xml:space="preserve" y="317.7139" clip-path="url(#clipPath2)" font-family="sans-serif" stroke="none">post</text>
      <path fill="none" d="M717.9512 289 L612.0311 289" clip-path="url(#clipPath2)"/>
      <path fill="white" d="M597.0311 289 L613.0311 295 L613.0311 283 Z" clip-path="url(#clipPath2)" stroke="none"/>
      <path fill="none" d="M597.0311 289 L613.0311 295 L613.0311 283 Z" clip-path="url(#clipPath2)"/>
    </g>
  </g>
</svg>
