<?xml version="1.0" encoding="UTF-8"?><svg xmlns="http://www.w3.org/2000/svg" xmlns:xlink="http://www.w3.org/1999/xlink" fill-opacity="1" color-rendering="auto" color-interpolation="auto" text-rendering="auto" stroke="black" stroke-linecap="square" width="636" stroke-miterlimit="10" shape-rendering="auto" stroke-opacity="1" fill="black" stroke-dasharray="none" font-weight="normal" stroke-width="1" height="370" font-family="'Dialog'" font-style="normal" stroke-linejoin="miter" font-size="12px" stroke-dashoffset="0" image-rendering="auto">
  <!--Generated by ySVG 2.5-->
  <defs id="genericDefs"/>
  <g>
    <defs id="defs1">
      <linearGradient x1="678.8666" gradientUnits="userSpaceOnUse" x2="769.8" y1="364.3" y2="364.3" id="linearGradient1" spreadMethod="reflect">
        <stop stop-opacity="1" stop-color="white" offset="0%"/>
        <stop stop-opacity="1" stop-color="white" offset="100%"/>
      </linearGradient>
      <linearGradient x1="650.3333" gradientUnits="userSpaceOnUse" x2="684.2" y1="343.9" y2="343.9" id="linearGradient2" spreadMethod="reflect">
        <stop stop-opacity="1" stop-color="white" offset="0%"/>
        <stop stop-opacity="1" stop-color="white" offset="100%"/>
      </linearGradient>
      <linearGradient x1="1086.2667" gradientUnits="userSpaceOnUse" x2="1177.2" y1="212" y2="212" id="linearGradient3" spreadMethod="reflect">
        <stop stop-opacity="1" stop-color="white" offset="0%"/>
        <stop stop-opacity="1" stop-color="white" offset="100%"/>
      </linearGradient>
      <linearGradient x1="1057.7333" gradientUnits="userSpaceOnUse" x2="1091.6" y1="191.6" y2="191.6" id="linearGradient4" spreadMethod="reflect">
        <stop stop-opacity="1" stop-color="white" offset="0%"/>
        <stop stop-opacity="1" stop-color="white" offset="100%"/>
      </linearGradient>
      <linearGradient x1="1086.2667" gradientUnits="userSpaceOnUse" x2="1177.2" y1="280.2" y2="280.2" id="linearGradient5" spreadMethod="reflect">
        <stop stop-opacity="1" stop-color="white" offset="0%"/>
        <stop stop-opacity="1" stop-color="white" offset="100%"/>
      </linearGradient>
      <linearGradient x1="1057.7333" gradientUnits="userSpaceOnUse" x2="1091.6" y1="259.8" y2="259.8" id="linearGradient6" spreadMethod="reflect">
        <stop stop-opacity="1" stop-color="white" offset="0%"/>
        <stop stop-opacity="1" stop-color="white" offset="100%"/>
      </linearGradient>
      <linearGradient x1="1086.2667" gradientUnits="userSpaceOnUse" x2="1177.2" y1="348.4" y2="348.4" id="linearGradient7" spreadMethod="reflect">
        <stop stop-opacity="1" stop-color="white" offset="0%"/>
        <stop stop-opacity="1" stop-color="white" offset="100%"/>
      </linearGradient>
      <linearGradient x1="1057.7333" gradientUnits="userSpaceOnUse" x2="1091.6" y1="328" y2="328" id="linearGradient8" spreadMethod="reflect">
        <stop stop-opacity="1" stop-color="white" offset="0%"/>
        <stop stop-opacity="1" stop-color="white" offset="100%"/>
      </linearGradient>
      <clipPath clipPathUnits="userSpaceOnUse" id="clipPath1">
        <path d="M0 0 L636 0 L636 370 L0 370 L0 0 Z"/>
      </clipPath>
      <clipPath clipPathUnits="userSpaceOnUse" id="clipPath2">
        <path d="M633 191 L1269 191 L1269 561 L633 561 L633 191 Z"/>
      </clipPath>
      <clipPath clipPathUnits="userSpaceOnUse" id="clipPath3">
        <path d="M726 263 L726 324 L826 324 L826 263 Z"/>
      </clipPath>
      <clipPath clipPathUnits="userSpaceOnUse" id="clipPath4">
        <path d="M726 468 L726 529 L826 529 L826 468 Z"/>
      </clipPath>
      <clipPath clipPathUnits="userSpaceOnUse" id="clipPath5">
        <path d="M881 468 L881 496 L999 496 L999 468 Z"/>
      </clipPath>
      <clipPath clipPathUnits="userSpaceOnUse" id="clipPath6">
        <path d="M881 516 L881 544 L999 544 L999 516 Z"/>
      </clipPath>
      <clipPath clipPathUnits="userSpaceOnUse" id="clipPath7">
        <path d="M1169 476 L1169 560 L1269 560 L1269 476 Z"/>
      </clipPath>
      <clipPath clipPathUnits="userSpaceOnUse" id="clipPath8">
        <path d="M1030 410 L1030 438 L1148 438 L1148 410 Z"/>
      </clipPath>
      <clipPath clipPathUnits="userSpaceOnUse" id="clipPath9">
        <path d="M1030 468 L1030 496 L1148 496 L1148 468 Z"/>
      </clipPath>
    </defs>
    <g fill="white" text-rendering="geometricPrecision" shape-rendering="geometricPrecision" transform="translate(-633,-191)" stroke="white">
      <rect x="633" width="636" height="370" y="191" clip-path="url(#clipPath2)" stroke="none"/>
    </g>
    <g fill="white" text-rendering="geometricPrecision" shape-rendering="geometricPrecision" transform="matrix(1,0,0,1,-633,-191)" stroke="white">
      <rect x="726.6" width="100" height="61.6" y="263.4" clip-path="url(#clipPath2)" stroke="none"/>
    </g>
    <g text-rendering="geometricPrecision" stroke-miterlimit="1.45" shape-rendering="geometricPrecision" transform="matrix(1,0,0,1,-633,-191)" stroke-linecap="butt">
      <rect fill="none" x="726.6" width="100" height="61.6" y="263.4" clip-path="url(#clipPath2)"/>
      <text x="737.5841" font-size="13px" y="281.4698" clip-path="url(#clipPath3)" font-family="sans-serif" stroke="none" font-weight="bold" xml:space="preserve">RDBDServer</text>
      <line stroke-linecap="square" clip-path="url(#clipPath3)" fill="none" x1="727" x2="825" y1="289" y2="289" stroke-miterlimit="10"/>
      <line stroke-linecap="square" clip-path="url(#clipPath3)" fill="none" x1="727" x2="825" y1="299" y2="299" stroke-miterlimit="10"/>
      <text x="731.6" xml:space="preserve" y="316.3907" clip-path="url(#clipPath3)" font-family="sans-serif" stroke="none">sendMessage()</text>
    </g>
    <g fill="white" text-rendering="geometricPrecision" shape-rendering="geometricPrecision" transform="matrix(1,0,0,1,-633,-191)" stroke="white">
      <rect x="726.6" width="100" height="61.6" y="468.4" clip-path="url(#clipPath2)" stroke="none"/>
    </g>
    <g text-rendering="geometricPrecision" stroke-miterlimit="1.45" shape-rendering="geometricPrecision" transform="matrix(1,0,0,1,-633,-191)" stroke-linecap="butt">
      <rect fill="none" x="726.6" width="100" height="61.6" y="468.4" clip-path="url(#clipPath2)"/>
      <text x="739.7677" font-size="13px" y="486.4698" clip-path="url(#clipPath4)" font-family="sans-serif" stroke="none" font-weight="bold" xml:space="preserve">RDBDClient</text>
      <line stroke-linecap="square" clip-path="url(#clipPath4)" fill="none" x1="727" x2="825" y1="494" y2="494" stroke-miterlimit="10"/>
      <line stroke-linecap="square" clip-path="url(#clipPath4)" fill="none" x1="727" x2="825" y1="504" y2="504" stroke-miterlimit="10"/>
      <text x="731.6" xml:space="preserve" y="521.3907" clip-path="url(#clipPath4)" font-family="sans-serif" stroke="none">listenMessage()</text>
    </g>
    <g fill="white" text-rendering="geometricPrecision" shape-rendering="geometricPrecision" transform="matrix(1,0,0,1,-633,-191)" stroke="white">
      <rect x="881.8" width="118.4" height="28" y="468.4" clip-path="url(#clipPath2)" stroke="none"/>
    </g>
    <g text-rendering="geometricPrecision" stroke-miterlimit="1.45" shape-rendering="geometricPrecision" transform="matrix(1,0,0,1,-633,-191)" stroke-linecap="butt">
      <rect fill="none" x="881.8" width="118.4" height="28" y="468.4" clip-path="url(#clipPath2)"/>
      <text x="893.7004" font-size="13px" y="486.4698" clip-path="url(#clipPath5)" font-family="sans-serif" stroke="none" font-weight="bold" xml:space="preserve">RDBDWindows</text>
    </g>
    <g fill="white" text-rendering="geometricPrecision" shape-rendering="geometricPrecision" transform="matrix(1,0,0,1,-633,-191)" stroke="white">
      <rect x="881.8" width="118.4" height="28" y="516" clip-path="url(#clipPath2)" stroke="none"/>
    </g>
    <g text-rendering="geometricPrecision" stroke-miterlimit="1.45" shape-rendering="geometricPrecision" transform="matrix(1,0,0,1,-633,-191)" stroke-linecap="butt">
      <rect fill="none" x="881.8" width="118.4" height="28" y="516" clip-path="url(#clipPath2)"/>
      <text x="897.3123" font-size="13px" y="534.0698" clip-path="url(#clipPath6)" font-family="sans-serif" stroke="none" font-weight="bold" xml:space="preserve">RDBDAndroid</text>
    </g>
    <g fill="white" text-rendering="geometricPrecision" shape-rendering="geometricPrecision" transform="matrix(1,0,0,1,-633,-191)" stroke="white">
      <rect x="1169" width="100" height="84" y="476.5" clip-path="url(#clipPath2)" stroke="none"/>
    </g>
    <g text-rendering="geometricPrecision" stroke-miterlimit="1.45" shape-rendering="geometricPrecision" transform="matrix(1,0,0,1,-633,-191)" stroke-linecap="butt">
      <rect fill="none" x="1169" width="100" height="84" y="476.5" clip-path="url(#clipPath2)"/>
      <text x="1181.6377" xml:space="preserve" y="493.5645" clip-path="url(#clipPath7)" font-family="sans-serif" stroke="none">&lt;&lt;Interface&gt;&gt;</text>
      <text x="1180.0032" font-size="13px" y="518.271" clip-path="url(#clipPath7)" font-family="sans-serif" stroke="none" font-weight="bold" xml:space="preserve">RDBDAction</text>
      <line stroke-linecap="square" clip-path="url(#clipPath7)" fill="none" x1="1170" x2="1268" y1="526" y2="526" stroke-miterlimit="10"/>
      <line stroke-linecap="square" clip-path="url(#clipPath7)" fill="none" x1="1170" x2="1268" y1="536" y2="536" stroke-miterlimit="10"/>
      <text x="1174" xml:space="preserve" y="553.1919" clip-path="url(#clipPath7)" font-family="sans-serif" stroke="none">execute()</text>
    </g>
    <g fill="white" text-rendering="geometricPrecision" shape-rendering="geometricPrecision" transform="matrix(1,0,0,1,-633,-191)" stroke="white">
      <rect x="1030.2" width="118.4" height="28" y="410.4" clip-path="url(#clipPath2)" stroke="none"/>
    </g>
    <g text-rendering="geometricPrecision" stroke-miterlimit="1.45" shape-rendering="geometricPrecision" transform="matrix(1,0,0,1,-633,-191)" stroke-linecap="butt">
      <rect fill="none" x="1030.2" width="118.4" height="28" y="410.4" clip-path="url(#clipPath2)"/>
      <text x="1050.3905" font-size="13px" y="428.4698" clip-path="url(#clipPath8)" font-family="sans-serif" stroke="none" font-weight="bold" xml:space="preserve">RDBDCreate</text>
    </g>
    <g fill="white" text-rendering="geometricPrecision" shape-rendering="geometricPrecision" transform="matrix(1,0,0,1,-633,-191)" stroke="white">
      <rect x="1030.2" width="118.4" height="28" y="468.4" clip-path="url(#clipPath2)" stroke="none"/>
    </g>
    <g text-rendering="geometricPrecision" stroke-miterlimit="1.45" shape-rendering="geometricPrecision" transform="matrix(1,0,0,1,-633,-191)" stroke-linecap="butt">
      <rect fill="none" x="1030.2" width="118.4" height="28" y="468.4" clip-path="url(#clipPath2)"/>
      <text x="1051.1141" font-size="13px" y="486.4698" clip-path="url(#clipPath9)" font-family="sans-serif" stroke="none" font-weight="bold" xml:space="preserve">RDBDDelete</text>
    </g>
    <g fill="url(#linearGradient1)" text-rendering="geometricPrecision" shape-rendering="geometricPrecision" transform="matrix(1,0,0,1,-633,-191)" stroke="url(#linearGradient1)">
      <rect x="633.4" width="136.4" height="67.6" y="364.3" clip-path="url(#clipPath2)" stroke="none"/>
    </g>
    <g text-rendering="geometricPrecision" stroke-miterlimit="1.45" shape-rendering="geometricPrecision" transform="matrix(1,0,0,1,-633,-191)" stroke-linecap="butt">
      <rect fill="none" x="633.4" width="136.4" height="67.6" y="364.3" clip-path="url(#clipPath2)"/>
      <text x="679.9261" y="395.4633" clip-path="url(#clipPath2)" font-family="sans-serif" stroke="none" font-weight="bold" xml:space="preserve">Apache</text>
      <text x="673.9261" y="410.1645" clip-path="url(#clipPath2)" font-family="sans-serif" stroke="none" font-weight="bold" xml:space="preserve">ActiveMQ</text>
    </g>
    <g fill="url(#linearGradient2)" text-rendering="geometricPrecision" shape-rendering="geometricPrecision" transform="matrix(1,0,0,1,-633,-191)" stroke="url(#linearGradient2)">
      <rect x="633.4" width="50.8" height="20.4" y="343.9" clip-path="url(#clipPath2)" stroke="none"/>
    </g>
    <g text-rendering="geometricPrecision" stroke-miterlimit="1.45" shape-rendering="geometricPrecision" transform="matrix(1,0,0,1,-633,-191)" stroke-linecap="butt">
      <rect fill="none" x="633.4" width="50.8" height="20.4" y="343.9" clip-path="url(#clipPath2)"/>
    </g>
    <g fill="url(#linearGradient3)" text-rendering="geometricPrecision" shape-rendering="geometricPrecision" transform="matrix(1,0,0,1,-633,-191)" stroke="url(#linearGradient3)">
      <rect x="1040.8" width="136.4" height="28" y="212" clip-path="url(#clipPath2)" stroke="none"/>
    </g>
    <g text-rendering="geometricPrecision" stroke-miterlimit="1.45" shape-rendering="geometricPrecision" transform="matrix(1,0,0,1,-633,-191)" stroke-linecap="butt">
      <rect fill="none" x="1040.8" width="136.4" height="28" y="212" clip-path="url(#clipPath2)"/>
      <text x="1085.334" y="230.7139" clip-path="url(#clipPath2)" font-family="sans-serif" stroke="none" font-weight="bold" xml:space="preserve">FAIRNet</text>
    </g>
    <g fill="url(#linearGradient4)" text-rendering="geometricPrecision" shape-rendering="geometricPrecision" transform="matrix(1,0,0,1,-633,-191)" stroke="url(#linearGradient4)">
      <rect x="1040.8" width="50.8" height="20.4" y="191.6" clip-path="url(#clipPath2)" stroke="none"/>
    </g>
    <g text-rendering="geometricPrecision" stroke-miterlimit="1.45" shape-rendering="geometricPrecision" transform="matrix(1,0,0,1,-633,-191)" stroke-linecap="butt">
      <rect fill="none" x="1040.8" width="50.8" height="20.4" y="191.6" clip-path="url(#clipPath2)"/>
    </g>
    <g fill="url(#linearGradient5)" text-rendering="geometricPrecision" shape-rendering="geometricPrecision" transform="matrix(1,0,0,1,-633,-191)" stroke="url(#linearGradient5)">
      <rect x="1040.8" width="136.4" height="28" y="280.2" clip-path="url(#clipPath2)" stroke="none"/>
    </g>
    <g text-rendering="geometricPrecision" stroke-miterlimit="1.45" shape-rendering="geometricPrecision" transform="matrix(1,0,0,1,-633,-191)" stroke-linecap="butt">
      <rect fill="none" x="1040.8" width="136.4" height="28" y="280.2" clip-path="url(#clipPath2)"/>
      <text x="1080.3301" y="298.9139" clip-path="url(#clipPath2)" font-family="sans-serif" stroke="none" font-weight="bold" xml:space="preserve">FAIRBank</text>
    </g>
    <g fill="url(#linearGradient6)" text-rendering="geometricPrecision" shape-rendering="geometricPrecision" transform="matrix(1,0,0,1,-633,-191)" stroke="url(#linearGradient6)">
      <rect x="1040.8" width="50.8" height="20.4" y="259.8" clip-path="url(#clipPath2)" stroke="none"/>
    </g>
    <g text-rendering="geometricPrecision" stroke-miterlimit="1.45" shape-rendering="geometricPrecision" transform="matrix(1,0,0,1,-633,-191)" stroke-linecap="butt">
      <rect fill="none" x="1040.8" width="50.8" height="20.4" y="259.8" clip-path="url(#clipPath2)"/>
    </g>
    <g fill="url(#linearGradient7)" text-rendering="geometricPrecision" shape-rendering="geometricPrecision" transform="matrix(1,0,0,1,-633,-191)" stroke="url(#linearGradient7)">
      <rect x="1040.8" width="136.4" height="28" y="348.4" clip-path="url(#clipPath2)" stroke="none"/>
    </g>
    <g text-rendering="geometricPrecision" stroke-miterlimit="1.45" shape-rendering="geometricPrecision" transform="matrix(1,0,0,1,-633,-191)" stroke-linecap="butt">
      <rect fill="none" x="1040.8" width="136.4" height="28" y="348.4" clip-path="url(#clipPath2)"/>
      <text x="1071.333" y="367.1139" clip-path="url(#clipPath2)" font-family="sans-serif" stroke="none" font-weight="bold" xml:space="preserve">FAIRHospital</text>
    </g>
    <g fill="url(#linearGradient8)" text-rendering="geometricPrecision" shape-rendering="geometricPrecision" transform="matrix(1,0,0,1,-633,-191)" stroke="url(#linearGradient8)">
      <rect x="1040.8" width="50.8" height="20.4" y="328" clip-path="url(#clipPath2)" stroke="none"/>
    </g>
    <g text-rendering="geometricPrecision" stroke-miterlimit="1.45" shape-rendering="geometricPrecision" transform="matrix(1,0,0,1,-633,-191)" stroke-linecap="butt">
      <rect fill="none" x="1040.8" width="50.8" height="20.4" y="328" clip-path="url(#clipPath2)"/>
      <path fill="none" d="M826.6242 508.44 L857.3325 508.44 L857.3325 482.4 L881.8036 482.4" clip-path="url(#clipPath2)"/>
      <path fill="none" d="M826.6242 508.44 L857.3325 508.44 L857.3325 530 L881.8036 530" clip-path="url(#clipPath2)"/>
      <path fill="none" d="M789.8 468.4168 L789.8 398.1 L1224.6 398.1 L1224.6 476.4952" clip-path="url(#clipPath2)"/>
      <path fill="none" d="M983.2 468.357 L983.2 424.4 L1030.1541 424.4" clip-path="url(#clipPath2)"/>
      <path fill="none" stroke-dasharray="6,2" d="M1148.5953 424.4 L1194.865 424.4 L1194.865 461.4947" clip-path="url(#clipPath2)"/>
      <path fill="white" stroke-dasharray="6,2" d="M1194.865 476.4947 L1200.865 460.4947 L1188.865 460.4947 Z" clip-path="url(#clipPath2)" stroke="none"/>
      <path fill="none" d="M1194.865 476.4947 L1200.865 460.4947 L1188.865 460.4947 Z" clip-path="url(#clipPath2)"/>
      <path fill="none" d="M1000.1644 482.4 L1030.1855 482.4" clip-path="url(#clipPath2)"/>
      <path fill="none" stroke-dasharray="6,2" d="M1089.4 496.3906 L1089.4 542.2177 L1153.9762 542.2177" clip-path="url(#clipPath2)"/>
      <path fill="white" stroke-dasharray="6,2" d="M1168.9762 542.2177 L1152.9762 536.2177 L1152.9762 548.2177 Z" clip-path="url(#clipPath2)" stroke="none"/>
      <path fill="none" d="M1168.9762 542.2177 L1152.9762 536.2177 L1152.9762 548.2177 Z" clip-path="url(#clipPath2)"/>
      <path fill="none" d="M726.6122 294.2 L701.6 294.2 L701.6 364.3" clip-path="url(#clipPath2)"/>
      <path fill="none" d="M701.6 431.9 L701.6 499.2 L726.6122 499.2" clip-path="url(#clipPath2)"/>
      <path fill="none" d="M826.6304 294.2 L942.8 294.2 L942.8 226 L1040.8 226" clip-path="url(#clipPath2)"/>
      <path fill="none" d="M826.6304 294.2 L1040.8 294.2" clip-path="url(#clipPath2)"/>
      <path fill="none" d="M826.6329 294.2 L942.8 294.2 L942.8 362.4 L1040.8 362.4" clip-path="url(#clipPath2)"/>
    </g>
  </g>
</svg>
