<?xml version="1.0" encoding="UTF-8" standalone="no"?><svg xmlns="http://www.w3.org/2000/svg" xmlns:xlink="http://www.w3.org/1999/xlink" contentScriptType="application/ecmascript" contentStyleType="text/css" height="1060px" preserveAspectRatio="none" style="width:794px;height:1060px;" version="1.1" viewBox="0 0 794 1060" width="794px" zoomAndPan="magnify"><defs><filter height="300%" id="f1ikavl80z0ner" width="300%" x="-1" y="-1"><feGaussianBlur result="blurOut" stdDeviation="2.0"/><feColorMatrix in="blurOut" result="blurOut2" type="matrix" values="0 0 0 0 0 0 0 0 0 0 0 0 0 0 0 0 0 0 .4 0"/><feOffset dx="4.0" dy="4.0" in="blurOut2" result="blurOut3"/><feBlend in="SourceGraphic" in2="blurOut3" mode="normal"/></filter></defs><g><rect fill="#FFFFFF" filter="url(#f1ikavl80z0ner)" height="79.0547" style="stroke: #000000; stroke-width: 2.0;" width="337" x="285" y="56.6094"/><rect fill="#FFFFFF" filter="url(#f1ikavl80z0ner)" height="172.1094" style="stroke: #000000; stroke-width: 2.0;" width="599" x="33" y="149.6641"/><rect fill="#FFFFFF" filter="url(#f1ikavl80z0ner)" height="79.0547" style="stroke: #000000; stroke-width: 2.0;" width="337" x="285" y="205.3672"/><rect fill="#FFFFFF" filter="url(#f1ikavl80z0ner)" height="479.625" style="stroke: #000000; stroke-width: 2.0;" width="770" x="13" y="335.7734"/><rect fill="#FFFFFF" filter="url(#f1ikavl80z0ner)" height="79.0547" style="stroke: #000000; stroke-width: 2.0;" width="337" x="285" y="391.4766"/><rect fill="#FFFFFF" filter="url(#f1ikavl80z0ner)" height="232.8125" style="stroke: #000000; stroke-width: 2.0;" width="750" x="23" y="484.5313"/><rect fill="#FFFFFF" filter="url(#f1ikavl80z0ner)" height="139.7578" style="stroke: #000000; stroke-width: 2.0;" width="730" x="33" y="540.2344"/><rect fill="#FFFFFF" filter="url(#f1ikavl80z0ner)" height="79.0547" style="stroke: #000000; stroke-width: 2.0;" width="478" x="285" y="829.3984"/><rect fill="#FFFFFF" filter="url(#f1ikavl80z0ner)" height="79.0547" style="stroke: #000000; stroke-width: 2.0;" width="730" x="33" y="922.4531"/><line style="stroke: #A80036; stroke-width: 1.0; stroke-dasharray: 5.0,5.0;" x1="82" x2="82" y1="39.6094" y2="1018.5078"/><line style="stroke: #A80036; stroke-width: 1.0; stroke-dasharray: 5.0,5.0;" x1="320" x2="320" y1="39.6094" y2="1018.5078"/><line style="stroke: #A80036; stroke-width: 1.0; stroke-dasharray: 5.0,5.0;" x1="566" x2="566" y1="39.6094" y2="1018.5078"/><line style="stroke: #A80036; stroke-width: 1.0; stroke-dasharray: 5.0,5.0;" x1="720" x2="720" y1="39.6094" y2="1018.5078"/><rect fill="#FEFECE" filter="url(#f1ikavl80z0ner)" height="31.6094" style="stroke: #A80036; stroke-width: 1.5;" width="75" x="43" y="3"/><text fill="#000000" font-family="sans-serif" font-size="14" lengthAdjust="spacingAndGlyphs" textLength="61" x="50" y="24.5332">Customer</text><rect fill="#FEFECE" filter="url(#f1ikavl80z0ner)" height="31.6094" style="stroke: #A80036; stroke-width: 1.5;" width="75" x="43" y="1017.5078"/><text fill="#000000" font-family="sans-serif" font-size="14" lengthAdjust="spacingAndGlyphs" textLength="61" x="50" y="1039.041">Customer</text><rect fill="#FEFECE" filter="url(#f1ikavl80z0ner)" height="31.6094" style="stroke: #A80036; stroke-width: 1.5;" width="47" x="295" y="3"/><text fill="#000000" font-family="sans-serif" font-size="14" lengthAdjust="spacingAndGlyphs" textLength="33" x="302" y="24.5332">Shop</text><rect fill="#FEFECE" filter="url(#f1ikavl80z0ner)" height="31.6094" style="stroke: #A80036; stroke-width: 1.5;" width="47" x="295" y="1017.5078"/><text fill="#000000" font-family="sans-serif" font-size="14" lengthAdjust="spacingAndGlyphs" textLength="33" x="302" y="1039.041">Shop</text><rect fill="#FEFECE" filter="url(#f1ikavl80z0ner)" height="31.6094" style="stroke: #A80036; stroke-width: 1.5;" width="87" x="521" y="3"/><text fill="#000000" font-family="sans-serif" font-size="14" lengthAdjust="spacingAndGlyphs" textLength="73" x="528" y="24.5332">Warehouse</text><rect fill="#FEFECE" filter="url(#f1ikavl80z0ner)" height="31.6094" style="stroke: #A80036; stroke-width: 1.5;" width="87" x="521" y="1017.5078"/><text fill="#000000" font-family="sans-serif" font-size="14" lengthAdjust="spacingAndGlyphs" textLength="73" x="528" y="1039.041">Warehouse</text><rect fill="#FEFECE" filter="url(#f1ikavl80z0ner)" height="31.6094" style="stroke: #A80036; stroke-width: 1.5;" width="61" x="688" y="3"/><text fill="#000000" font-family="sans-serif" font-size="14" lengthAdjust="spacingAndGlyphs" textLength="47" x="695" y="24.5332">Courier</text><rect fill="#FEFECE" filter="url(#f1ikavl80z0ner)" height="31.6094" style="stroke: #A80036; stroke-width: 1.5;" width="61" x="688" y="1017.5078"/><text fill="#000000" font-family="sans-serif" font-size="14" lengthAdjust="spacingAndGlyphs" textLength="47" x="695" y="1039.041">Courier</text><path d="M285,56.6094 L544,56.6094 L544,64.6094 L534,74.6094 L285,74.6094 L285,56.6094 " fill="#EEEEEE" style="stroke: #000000; stroke-width: 1.0;"/><rect fill="none" height="79.0547" style="stroke: #000000; stroke-width: 2.0;" width="337" x="285" y="56.6094"/><text fill="#000000" font-family="sans-serif" font-size="13" font-weight="bold" lengthAdjust="spacingAndGlyphs" textLength="214" x="300" y="71.1045">Order to Receive Incoming Goods</text><polygon fill="#A80036" points="554.5,93.3125,564.5,97.3125,554.5,101.3125,558.5,97.3125" style="stroke: #A80036; stroke-width: 1.0;"/><line style="stroke: #A80036; stroke-width: 1.0;" x1="320.5" x2="560.5" y1="97.3125" y2="97.3125"/><text fill="#000000" font-family="sans-serif" font-size="13" lengthAdjust="spacingAndGlyphs" textLength="222" x="327.5" y="92.4561">receiveGoods(GoodsReceiptOrder gro)</text><polygon fill="#A80036" points="331.5,123.6641,321.5,127.6641,331.5,131.6641,327.5,127.6641" style="stroke: #A80036; stroke-width: 1.0;"/><line style="stroke: #A80036; stroke-width: 1.0; stroke-dasharray: 2.0,2.0;" x1="325.5" x2="565.5" y1="127.6641" y2="127.6641"/><text fill="#000000" font-family="sans-serif" font-size="13" lengthAdjust="spacingAndGlyphs" textLength="154" x="337.5" y="122.8076">GoodsReceiptConfirmation</text><path d="M33,149.6641 L163,149.6641 L163,157.6641 L153,167.6641 L33,167.6641 L33,149.6641 " fill="#EEEEEE" style="stroke: #000000; stroke-width: 1.0;"/><rect fill="none" height="172.1094" style="stroke: #000000; stroke-width: 2.0;" width="599" x="33" y="149.6641"/><text fill="#000000" font-family="sans-serif" font-size="13" font-weight="bold" lengthAdjust="spacingAndGlyphs" textLength="85" x="48" y="164.1592">Browse Items</text><polygon fill="#A80036" points="308.5,186.3672,318.5,190.3672,308.5,194.3672,312.5,190.3672" style="stroke: #A80036; stroke-width: 1.0;"/><line style="stroke: #A80036; stroke-width: 1.0;" x1="82.5" x2="314.5" y1="190.3672" y2="190.3672"/><text fill="#000000" font-family="sans-serif" font-size="13" lengthAdjust="spacingAndGlyphs" textLength="58" x="89.5" y="185.5107">getItems()</text><path d="M285,205.3672 L358,205.3672 L358,213.3672 L348,223.3672 L285,223.3672 L285,205.3672 " fill="#EEEEEE" style="stroke: #000000; stroke-width: 1.0;"/><rect fill="none" height="79.0547" style="stroke: #000000; stroke-width: 2.0;" width="337" x="285" y="205.3672"/><text fill="#000000" font-family="sans-serif" font-size="13" font-weight="bold" lengthAdjust="spacingAndGlyphs" textLength="28" x="300" y="219.8623">loop</text><text fill="#000000" font-family="sans-serif" font-size="11" font-weight="bold" lengthAdjust="spacingAndGlyphs" textLength="50" x="373" y="218.7861">[n times]</text><polygon fill="#A80036" points="554.5,242.0703,564.5,246.0703,554.5,250.0703,558.5,246.0703" style="stroke: #A80036; stroke-width: 1.0;"/><line style="stroke: #A80036; stroke-width: 1.0;" x1="320.5" x2="560.5" y1="246.0703" y2="246.0703"/><text fill="#000000" font-family="sans-serif" font-size="13" lengthAdjust="spacingAndGlyphs" textLength="173" x="327.5" y="241.2139">getItemQuantity(String itemId)</text><polygon fill="#A80036" points="331.5,272.4219,321.5,276.4219,331.5,280.4219,327.5,276.4219" style="stroke: #A80036; stroke-width: 1.0;"/><line style="stroke: #A80036; stroke-width: 1.0; stroke-dasharray: 2.0,2.0;" x1="325.5" x2="565.5" y1="276.4219" y2="276.4219"/><text fill="#000000" font-family="sans-serif" font-size="13" lengthAdjust="spacingAndGlyphs" textLength="129" x="337.5" y="271.5654">Item Quantity [Integer]</text><polygon fill="#A80036" points="93.5,309.7734,83.5,313.7734,93.5,317.7734,89.5,313.7734" style="stroke: #A80036; stroke-width: 1.0;"/><line style="stroke: #A80036; stroke-width: 1.0; stroke-dasharray: 2.0,2.0;" x1="87.5" x2="319.5" y1="313.7734" y2="313.7734"/><text fill="#000000" font-family="sans-serif" font-size="13" lengthAdjust="spacingAndGlyphs" textLength="62" x="99.5" y="308.917">List&lt;Item&gt;</text><path d="M13,335.7734 L119,335.7734 L119,343.7734 L109,353.7734 L13,353.7734 L13,335.7734 " fill="#EEEEEE" style="stroke: #000000; stroke-width: 1.0;"/><rect fill="none" height="479.625" style="stroke: #000000; stroke-width: 2.0;" width="770" x="13" y="335.7734"/><text fill="#000000" font-family="sans-serif" font-size="13" font-weight="bold" lengthAdjust="spacingAndGlyphs" textLength="61" x="28" y="350.2686">Put Order</text><polygon fill="#A80036" points="308.5,372.4766,318.5,376.4766,308.5,380.4766,312.5,376.4766" style="stroke: #A80036; stroke-width: 1.0;"/><line style="stroke: #A80036; stroke-width: 1.0;" x1="82.5" x2="314.5" y1="376.4766" y2="376.4766"/><text fill="#000000" font-family="sans-serif" font-size="13" lengthAdjust="spacingAndGlyphs" textLength="160" x="89.5" y="371.6201">createOrder(Basket basket)</text><path d="M285,391.4766 L462,391.4766 L462,399.4766 L452,409.4766 L285,409.4766 L285,391.4766 " fill="#EEEEEE" style="stroke: #000000; stroke-width: 1.0;"/><rect fill="none" height="79.0547" style="stroke: #000000; stroke-width: 2.0;" width="337" x="285" y="391.4766"/><text fill="#000000" font-family="sans-serif" font-size="13" font-weight="bold" lengthAdjust="spacingAndGlyphs" textLength="132" x="300" y="405.9717">Order to Issue Goods</text><polygon fill="#A80036" points="554.5,428.1797,564.5,432.1797,554.5,436.1797,558.5,432.1797" style="stroke: #A80036; stroke-width: 1.0;"/><line style="stroke: #A80036; stroke-width: 1.0;" x1="320.5" x2="560.5" y1="432.1797" y2="432.1797"/><text fill="#000000" font-family="sans-serif" font-size="13" lengthAdjust="spacingAndGlyphs" textLength="199" x="327.5" y="427.3232">issueGoods(GoodsIssueOrder gio)</text><polygon fill="#A80036" points="331.5,458.5313,321.5,462.5313,331.5,466.5313,327.5,462.5313" style="stroke: #A80036; stroke-width: 1.0;"/><line style="stroke: #A80036; stroke-width: 1.0; stroke-dasharray: 2.0,2.0;" x1="325.5" x2="565.5" y1="462.5313" y2="462.5313"/><text fill="#000000" font-family="sans-serif" font-size="13" lengthAdjust="spacingAndGlyphs" textLength="141" x="337.5" y="457.6748">GoodsIssueConfirmation</text><path d="M23,484.5313 L293,484.5313 L293,492.5313 L283,502.5313 L23,502.5313 L23,484.5313 " fill="#EEEEEE" style="stroke: #000000; stroke-width: 1.0;"/><rect fill="none" height="232.8125" style="stroke: #000000; stroke-width: 2.0;" width="750" x="23" y="484.5313"/><text fill="#000000" font-family="sans-serif" font-size="13" font-weight="bold" lengthAdjust="spacingAndGlyphs" textLength="225" x="38" y="499.0264">Order to Pick Up and Deliver Goods</text><polygon fill="#A80036" points="708.5,521.2344,718.5,525.2344,708.5,529.2344,712.5,525.2344" style="stroke: #A80036; stroke-width: 1.0;"/><line style="stroke: #A80036; stroke-width: 1.0;" x1="320.5" x2="714.5" y1="525.2344" y2="525.2344"/><text fill="#000000" font-family="sans-serif" font-size="13" lengthAdjust="spacingAndGlyphs" textLength="248" x="327.5" y="520.3779">deliverGoods(ShippingOrder shippingOrder)</text><path d="M33,540.2344 L168,540.2344 L168,548.2344 L158,558.2344 L33,558.2344 L33,540.2344 " fill="#EEEEEE" style="stroke: #000000; stroke-width: 1.0;"/><rect fill="none" height="139.7578" style="stroke: #000000; stroke-width: 2.0;" width="730" x="33" y="540.2344"/><text fill="#000000" font-family="sans-serif" font-size="13" font-weight="bold" lengthAdjust="spacingAndGlyphs" textLength="90" x="48" y="554.7295">Get Addresses</text><polygon fill="#A80036" points="577.5,576.9375,567.5,580.9375,577.5,584.9375,573.5,580.9375" style="stroke: #A80036; stroke-width: 1.0;"/><line style="stroke: #A80036; stroke-width: 1.0;" x1="571.5" x2="719.5" y1="580.9375" y2="580.9375"/><text fill="#000000" font-family="sans-serif" font-size="13" lengthAdjust="spacingAndGlyphs" textLength="130" x="583.5" y="576.0811">getOutboundAddress()</text><polygon fill="#A80036" points="708.5,607.2891,718.5,611.2891,708.5,615.2891,712.5,611.2891" style="stroke: #A80036; stroke-width: 1.0;"/><line style="stroke: #A80036; stroke-width: 1.0; stroke-dasharray: 2.0,2.0;" x1="566.5" x2="714.5" y1="611.2891" y2="611.2891"/><text fill="#000000" font-family="sans-serif" font-size="13" lengthAdjust="spacingAndGlyphs" textLength="104" x="573.5" y="606.4326">OutboundAddress</text><polygon fill="#A80036" points="93.5,637.6406,83.5,641.6406,93.5,645.6406,89.5,641.6406" style="stroke: #A80036; stroke-width: 1.0;"/><line style="stroke: #A80036; stroke-width: 1.0;" x1="87.5" x2="719.5" y1="641.6406" y2="641.6406"/><text fill="#000000" font-family="sans-serif" font-size="13" lengthAdjust="spacingAndGlyphs" textLength="124" x="99.5" y="636.7842">getShippingAddress()</text><polygon fill="#A80036" points="708.5,667.9922,718.5,671.9922,708.5,675.9922,712.5,671.9922" style="stroke: #A80036; stroke-width: 1.0;"/><line style="stroke: #A80036; stroke-width: 1.0; stroke-dasharray: 2.0,2.0;" x1="82.5" x2="714.5" y1="671.9922" y2="671.9922"/><text fill="#000000" font-family="sans-serif" font-size="13" lengthAdjust="spacingAndGlyphs" textLength="98" x="89.5" y="667.1357">ShippingAddress</text><polygon fill="#A80036" points="331.5,705.3438,321.5,709.3438,331.5,713.3438,327.5,709.3438" style="stroke: #A80036; stroke-width: 1.0;"/><line style="stroke: #A80036; stroke-width: 1.0; stroke-dasharray: 2.0,2.0;" x1="325.5" x2="719.5" y1="709.3438" y2="709.3438"/><text fill="#000000" font-family="sans-serif" font-size="13" lengthAdjust="spacingAndGlyphs" textLength="105" x="337.5" y="704.4873">TrackingId [String]</text><polygon fill="#A80036" points="93.5,742.6953,83.5,746.6953,93.5,750.6953,89.5,746.6953" style="stroke: #A80036; stroke-width: 1.0;"/><line style="stroke: #A80036; stroke-width: 1.0;" x1="87.5" x2="319.5" y1="746.6953" y2="746.6953"/><text fill="#000000" font-family="sans-serif" font-size="13" lengthAdjust="spacingAndGlyphs" textLength="109" x="99.5" y="741.8389">getBillingAddress()</text><polygon fill="#A80036" points="308.5,773.0469,318.5,777.0469,308.5,781.0469,312.5,777.0469" style="stroke: #A80036; stroke-width: 1.0;"/><line style="stroke: #A80036; stroke-width: 1.0; stroke-dasharray: 2.0,2.0;" x1="82.5" x2="314.5" y1="777.0469" y2="777.0469"/><text fill="#000000" font-family="sans-serif" font-size="13" lengthAdjust="spacingAndGlyphs" textLength="83" x="89.5" y="772.1904">BillingAddress</text><polygon fill="#A80036" points="93.5,803.3984,83.5,807.3984,93.5,811.3984,89.5,807.3984" style="stroke: #A80036; stroke-width: 1.0;"/><line style="stroke: #A80036; stroke-width: 1.0; stroke-dasharray: 2.0,2.0;" x1="87.5" x2="319.5" y1="807.3984" y2="807.3984"/><text fill="#000000" font-family="sans-serif" font-size="13" lengthAdjust="spacingAndGlyphs" textLength="214" x="99.5" y="802.542">CustomerOrder [Contains TrackingId]</text><path d="M285,829.3984 L461,829.3984 L461,837.3984 L451,847.3984 L285,847.3984 L285,829.3984 " fill="#EEEEEE" style="stroke: #000000; stroke-width: 1.0;"/><rect fill="none" height="79.0547" style="stroke: #000000; stroke-width: 2.0;" width="478" x="285" y="829.3984"/><text fill="#000000" font-family="sans-serif" font-size="13" font-weight="bold" lengthAdjust="spacingAndGlyphs" textLength="131" x="300" y="843.8936">Track Order by Shop</text><polygon fill="#A80036" points="708.5,866.1016,718.5,870.1016,708.5,874.1016,712.5,870.1016" style="stroke: #A80036; stroke-width: 1.0;"/><line style="stroke: #A80036; stroke-width: 1.0;" x1="320.5" x2="714.5" y1="870.1016" y2="870.1016"/><text fill="#000000" font-family="sans-serif" font-size="13" lengthAdjust="spacingAndGlyphs" textLength="176" x="327.5" y="865.2451">trackDelivery(String trackingId)</text><polygon fill="#A80036" points="331.5,896.4531,321.5,900.4531,331.5,904.4531,327.5,900.4531" style="stroke: #A80036; stroke-width: 1.0;"/><line style="stroke: #A80036; stroke-width: 1.0; stroke-dasharray: 2.0,2.0;" x1="325.5" x2="719.5" y1="900.4531" y2="900.4531"/><text fill="#000000" font-family="sans-serif" font-size="13" lengthAdjust="spacingAndGlyphs" textLength="83" x="337.5" y="895.5967">DeliveryStatus</text><path d="M33,922.4531 L236,922.4531 L236,930.4531 L226,940.4531 L33,940.4531 L33,922.4531 " fill="#EEEEEE" style="stroke: #000000; stroke-width: 1.0;"/><rect fill="none" height="79.0547" style="stroke: #000000; stroke-width: 2.0;" width="730" x="33" y="922.4531"/><text fill="#000000" font-family="sans-serif" font-size="13" font-weight="bold" lengthAdjust="spacingAndGlyphs" textLength="158" x="48" y="936.9482">Track Order by Customer</text><polygon fill="#A80036" points="708.5,959.1563,718.5,963.1563,708.5,967.1563,712.5,963.1563" style="stroke: #A80036; stroke-width: 1.0;"/><line style="stroke: #A80036; stroke-width: 1.0;" x1="82.5" x2="714.5" y1="963.1563" y2="963.1563"/><text fill="#000000" font-family="sans-serif" font-size="13" lengthAdjust="spacingAndGlyphs" textLength="176" x="89.5" y="958.2998">trackDelivery(String trackingId)</text><polygon fill="#A80036" points="93.5,989.5078,83.5,993.5078,93.5,997.5078,89.5,993.5078" style="stroke: #A80036; stroke-width: 1.0;"/><line style="stroke: #A80036; stroke-width: 1.0; stroke-dasharray: 2.0,2.0;" x1="87.5" x2="719.5" y1="993.5078" y2="993.5078"/><text fill="#000000" font-family="sans-serif" font-size="13" lengthAdjust="spacingAndGlyphs" textLength="83" x="99.5" y="988.6514">DeliveryStatus</text><!--MD5=[637afdf0fda8fa310e0ad035566fa0d9]
@startuml
participant Customer order 1
participant Shop order 2
participant Warehouse order 3
participant Courier order 4

group Order to Receive Incoming Goods
  Shop -> Warehouse : receiveGoods(GoodsReceiptOrder gro)
  Shop <- - Warehouse : GoodsReceiptConfirmation
end

group Browse Items
  Customer -> Shop : getItems()
  loop n times
    Shop -> Warehouse : getItemQuantity(String itemId)
    Shop <- - Warehouse : Item Quantity [Integer]
  end
  Customer <- - Shop : List<Item>
end

group Put Order
  Customer -> Shop : createOrder(Basket basket)

  group Order to Issue Goods
    Shop -> Warehouse: issueGoods(GoodsIssueOrder gio)
    Shop <- - Warehouse: GoodsIssueConfirmation 
  end

  group Order to Pick Up and Deliver Goods
    Shop -> Courier: deliverGoods(ShippingOrder shippingOrder)
    group Get Addresses    
      Courier -> Warehouse : getOutboundAddress()
      Courier <- - Warehouse : OutboundAddress
      Courier -> Customer : getShippingAddress()
      Courier <- - Customer : ShippingAddress
    end
    Shop <- - Courier: TrackingId [String]
  end 

  Shop -> Customer : getBillingAddress()
  Shop <- - Customer : BillingAddress
  Customer <- - Shop : CustomerOrder [Contains TrackingId]
end

group Track Order by Shop
  Shop -> Courier : trackDelivery(String trackingId)
  Shop <- - Courier : DeliveryStatus
end

group Track Order by Customer
  Customer -> Courier : trackDelivery(String trackingId)
  Customer <- - Courier : DeliveryStatus
end
@enduml

PlantUML version 1.2020.10(Sun May 17 10:35:57 BST 2020)
(GPL source distribution)
Java Runtime: Java(TM) SE Runtime Environment
JVM: Java HotSpot(TM) 64-Bit Server VM
Java Version: 1.8.0_202-b08
Operating System: Windows 10
Default Encoding: Cp1252
Language: en
Country: GB
--></g></svg>